<svg xmlns="http://www.w3.org/2000/svg"  viewBox="0 0 48 48" width="48px" height="48px"><radialGradient id="A~368cXVs5UCtdgm30wAAa" cx="296" cy="24" r="18" fx="295.905" fy="16.289" gradientTransform="translate(-272)" gradientUnits="userSpaceOnUse"><stop offset="0" stop-color="#ffe16e"/><stop offset=".629" stop-color="#ffd226"/><stop offset=".75" stop-color="#fdcd23"/><stop offset=".899" stop-color="#f6bd1b"/><stop offset=".999" stop-color="#f0af13"/></radialGradient><circle cx="24" cy="24" r="18" fill="url(#A~368cXVs5UCtdgm30wAAa)"/><radialGradient id="A~368cXVs5UCtdgm30wAAb" cx="24" cy="26.779" r="11.171" fx="23.992" fy="27.198" gradientUnits="userSpaceOnUse"><stop offset=".371" stop-color="#ffd226"/><stop offset=".948" stop-color="#ffe16e"/><stop offset="1" stop-color="#ffe16e" stop-opacity="0"/></radialGradient><path fill="url(#A~368cXVs5UCtdgm30wAAb)" d="M35,26c0,0,0.139,12-11,12S13,26,13,26s2.444,0,11,0S35,26,35,26z"/><radialGradient id="A~368cXVs5UCtdgm30wAAc" cx="24.15" cy="25.589" r="11.863" gradientUnits="userSpaceOnUse"><stop offset="0" stop-color="#1c1911"/><stop offset=".999" stop-color="#171714"/></radialGradient><path fill="url(#A~368cXVs5UCtdgm30wAAc)" d="M35,26c0,6.075-4.925,11-11,11s-11-4.925-11-11H35z"/><radialGradient id="A~368cXVs5UCtdgm30wAAd" cx="24" cy="38.731" r="5.91" gradientTransform="matrix(0 1 -.9954 0 62.553 14.731)" gradientUnits="userSpaceOnUse"><stop offset=".456" stop-color="#db4a59"/><stop offset=".602" stop-color="#d84756"/><stop offset=".729" stop-color="#cd3e4d"/><stop offset=".85" stop-color="#bb303e"/><stop offset=".965" stop-color="#a21b29"/><stop offset=".999" stop-color="#991421"/></radialGradient><path fill="url(#A~368cXVs5UCtdgm30wAAd)" d="M25,33c-0.516,0-1,0.5-1,0.5S23.516,33,23,33c-2.081,0-3.426,1.959-3.426,1.959	C20.91,35.622,22.411,36,24,36s3.09-0.378,4.426-1.041C28.426,34.959,27.081,33,25,33z"/><radialGradient id="A~368cXVs5UCtdgm30wAAe" cx="24.101" cy="29.227" r="10.381" gradientUnits="userSpaceOnUse"><stop offset=".819" stop-color="#cc9000"/><stop offset=".988" stop-color="#fbbc23" stop-opacity=".069"/><stop offset="1" stop-color="#ffbf26" stop-opacity="0"/></radialGradient><path fill="url(#A~368cXVs5UCtdgm30wAAe)" d="M24,38c-3.484,0-6.64-1.378-8.974-3.609C16.653,37.709,20.055,40,24,40	s7.347-2.291,8.974-5.609C30.64,36.622,27.484,38,24,38z"/><linearGradient id="A~368cXVs5UCtdgm30wAAf" x1="15" x2="33" y1="28.5" y2="28.5" gradientUnits="userSpaceOnUse"><stop offset=".001" stop-color="#968f72"/><stop offset=".048" stop-color="#b2ad97"/><stop offset=".098" stop-color="#cac6b7"/><stop offset=".153" stop-color="#dddbd2"/><stop offset=".213" stop-color="#ecebe6"/><stop offset=".281" stop-color="#f7f6f4"/><stop offset=".363" stop-color="#fdfdfc"/><stop offset=".5" stop-color="#fff"/><stop offset=".637" stop-color="#fdfdfc"/><stop offset=".719" stop-color="#f7f6f4"/><stop offset=".787" stop-color="#ecebe6"/><stop offset=".847" stop-color="#dddbd2"/><stop offset=".902" stop-color="#cac6b7"/><stop offset=".952" stop-color="#b2ad97"/><stop offset="1" stop-color="#968f72"/></linearGradient><path fill="url(#A~368cXVs5UCtdgm30wAAf)" d="M15,27v1c0,1.105,0.895,2,2,2h14c1.105,0,2-0.895,2-2v-1H15z"/><linearGradient id="A~368cXVs5UCtdgm30wAAg" x1="31.509" x2="31.509" y1="11.886" y2="23.479" gradientUnits="userSpaceOnUse"><stop offset=".001" stop-color="#ff634f"/><stop offset=".628" stop-color="#ee4023"/><stop offset="1" stop-color="#e62f0e"/></linearGradient><path fill="url(#A~368cXVs5UCtdgm30wAAg)" d="M32.103,12.371l1.551,3.236l3.557,0.475c0.549,0.073,0.768,0.749,0.367,1.131l-2.598,2.475	l0.647,3.529c0.1,0.544-0.475,0.962-0.962,0.699l-3.156-1.706l-3.156,1.706c-0.487,0.263-1.062-0.155-0.962-0.699l0.647-3.529	l-2.598-2.475c-0.401-0.382-0.181-1.058,0.367-1.131l3.557-0.475l1.551-3.236C31.153,11.872,31.864,11.872,32.103,12.371z"/><linearGradient id="A~368cXVs5UCtdgm30wAAh" x1="16.491" x2="16.491" y1="11.963" y2="23.797" gradientUnits="userSpaceOnUse"><stop offset=".001" stop-color="#ff634f"/><stop offset=".628" stop-color="#ee4023"/><stop offset="1" stop-color="#e62f0e"/></linearGradient><path fill="url(#A~368cXVs5UCtdgm30wAAh)" d="M15.897,12.371l-1.551,3.236l-3.557,0.475c-0.549,0.073-0.768,0.749-0.367,1.131l2.598,2.475	l-0.647,3.529c-0.1,0.544,0.475,0.962,0.962,0.699l3.156-1.706l3.156,1.706c0.487,0.263,1.062-0.155,0.962-0.699l-0.647-3.529	l2.598-2.475c0.401-0.382,0.181-1.058-0.367-1.131l-3.557-0.475l-1.551-3.236C16.847,11.872,16.136,11.872,15.897,12.371z"/></svg>